# xmcd CD database file
#
# Track frame offsets:
#	150
#	19086
#	36770
#	57474
#	75077
#	91094
#	108755
#	126802
#	143902
#	160175
#	179414
#	197199
#	214052
#	230235
#	248385
#	267115
#	285789
#	307815
#
# Disc length: 4375 seconds
#
# Revision: 3
# Processed by: cddbd v1.5.2PL0 Copyright (c) Steve Scherf et al.
# Submitted via: CDex 1.51
#
DISCID=e3111512
DTITLE=Various Artist - SF-320
DYEAR=1900
DGENRE=Blues
TTITLE0=Ne-Yo - Let Me Love You (until you learn to love yourself)
TTITLE1=Flo Rida - I Cry
TTITLE2=Pink - Blow Me (one last kiss)(clean)
TTITLE3=PSY - Gangnam Style
TTITLE4=Script The Ft Will.I.Am - Hall Of Fame
TTITLE5=JLS - Hottest Girl In The World
TTITLE6=Dappy - Good Intentions
TTITLE7=Tulisa Ft Tyga - Live It Up (clean)
TTITLE8=Robbie Williams - Candy
TTITLE9=Rita Ora - Roc The Life (clean)
TTITLE10=Example - Say Nothing
TTITLE11=DJ Fresh Ft RaVaughn - The Feeling
TTITLE12=One Direction - Live While We're Young
TTITLE13=David Guetta Ft Sia - She Wolf (falling to pieces)
TTITLE14=Simple Plan Ft Sean Paul - Summer Paradise
TTITLE15=Connor Maynard Ft Ne-Yo - Turn Around
TTITLE16=Mumford and Sons - I Will Wait
TTITLE17=Public enemy - Harder Than You Think
EXTD=
EXTT0=
EXTT1=
EXTT2=
EXTT3=
EXTT4=
EXTT5=
EXTT6=
EXTT7=
EXTT8=
EXTT9=
EXTT10=
EXTT11=
EXTT12=
EXTT13=
EXTT14=
EXTT15=
EXTT16=
EXTT17=
PLAYORDER=
